PathFileType	4	(X/Y/Z)	C:\Github\BTS_project\Data\sports2d_results\test4 Exam_2026-03-06_143128_tvc2_Sports2D\test4 Exam_2026-03-06_143128_tvc2_Sports2D_px_person00.trc
DataRate	CameraRate	NumFrames	NumMarkers	Units	OrigDataRate	OrigDataStartFrame	OrigNumFrames
30.0	30.0	5	22	m	30.0	200	321
Frame#	Time	Hip			RHip			RKnee			RAnkle			RBigToe			RSmallToe			RHeel			LHip			LKnee			LAnkle			LBigToe			LSmallToe			LHeel			Neck			Head			Nose			RShoulder			RElbow			RWrist			LShoulder			LElbow			LWrist			
		X1	Y1	Z1	X2	Y2	Z2	X3	Y3	Z3	X4	Y4	Z4	X5	Y5	Z5	X6	Y6	Z6	X7	Y7	Z7	X8	Y8	Z8	X9	Y9	Z9	X10	Y10	Z10	X11	Y11	Z11	X12	Y12	Z12	X13	Y13	Z13	X14	Y14	Z14	X15	Y15	Z15	X16	Y16	Z16	X17	Y17	Z17	X18	Y18	Z18	X19	Y19	Z19	X20	Y20	Z20	X21	Y21	Z21	X22	Y22	Z22
200	6.687499999999999	323.7267341153215	671.5662753901069	0.0	289.14449286033147	677.3096860656519	0.0	303.0265375698767	807.739907170612	0.0	321.21026388320905	912.8549761014273	0.0	329.4401961247105	965.4004296700045	0.0	308.7862194442708	962.0516514752474	0.0	328.01820545830844	926.444426263975	0.0	360.3341182064512	666.9575276204192	0.0	375.66073950021337	785.3644496022141	0.0	357.18760470156127	791.8495829664964	0.0	367.05230374184487	837.7381404389743	0.0	377.01090219686614	830.031092590123	0.0	352.63765322376304	780.7470164958198	0.0	306.01948819767074	500.57520489978685	0.0	295.23171045295464	402.93688243355723	0.0	301.95591827131193	470.40827625886897	0.0	240.88313378618054	511.39176770919767	0.0	173.00946739631414	558.267775259903	0.0	119.37171565635886	615.3388736629547	0.0	372.1676343563959	501.61200587790904	0.0	436.00746502350347	540.4896493965136	0.0	490.49078148111187	563.9411563784802	0.0
201	6.720937499999999	323.0606645709703	668.059475062005	0.0	288.4332948520842	673.7172061046589	0.0	301.323501762886	804.4291971296498	0.0	319.37598561902183	917.287361795215	0.0	327.70526169958134	967.9189309593803	0.0	306.7443858773471	964.126849770343	0.0	326.2190289960898	928.7160940011796	0.0	360.47291280397974	665.1464663637848	0.0	374.16298968620015	787.4884234733727	0.0	361.22144875085655	791.1813868975516	0.0	369.1287832650078	839.1553859965554	0.0	379.72230539861897	830.8639380287104	0.0	356.88540875804057	775.9586293423071	0.0	305.463557675514	493.26254618697243	0.0	293.0908566483292	395.316279571963	0.0	300.8053388444588	464.0475587179662	0.0	239.31800764946846	504.8467396358618	0.0	171.15289206969746	553.9649407224775	0.0	119.6594315439287	618.2666970704727	0.0	371.92690776745036	494.14226862724763	0.0	434.7673820801731	535.3650311532529	0.0	485.4813548304263	563.8154480772376	0.0
202	6.754374999999999	322.5984272791501	667.4387089936733	0.0	287.6701838657667	672.5763439258945	0.0	299.5780410442764	803.9290349023393	0.0	317.2220797040469	928.6393257229349	0.0	325.08446201611633	973.7234418626547	0.0	304.830677046871	970.5159164128283	0.0	325.17864798860927	940.8503733713055	0.0	360.52409387812486	665.4654062715655	0.0	372.60501014119586	790.9143799828728	0.0	363.662016895799	792.7537155549279	0.0	368.9694521574433	839.3120538792173	0.0	380.12361229416825	829.8077589382417	0.0	357.41763623617663	774.373451866867	0.0	304.99839784608315	489.6261610166535	0.0	290.922133492617	391.82469355907097	0.0	299.09707074967196	461.3701250440992	0.0	238.19000809996948	501.26564976784533	0.0	169.5249657572176	551.803956738827	0.0	121.30729709779587	622.4224546757406	0.0	372.10081652203377	489.9825694238614	0.0	434.4242544125385	533.0416130701216	0.0	480.2998524907721	568.1874897612563	0.0
203	6.787812499999999	322.01922797585445	669.7618115049212	0.0	286.83927331965333	674.4015415623143	0.0	298.3043268378307	807.7709374985026	0.0	314.82773847845675	943.1922669570572	0.0	321.64285820014396	983.0877854066205	0.0	302.56975073393767	980.5527151141301	0.0	324.3917690625087	958.2117097842013	0.0	360.25033052281975	668.124414571417	0.0	371.09065103905084	796.21797439725	0.0	363.12621401489594	796.0102019703528	0.0	365.31912437502325	839.4596754201918	0.0	377.4120753788667	828.0140242391072	0.0	354.84470255450753	776.0458903530664	0.0	303.9254331338538	490.0966973036459	0.0	288.960517480554	392.63158474459635	0.0	296.85979482589426	462.89733346075593	0.0	236.92810536091037	500.43324401867847	0.0	168.1835756553524	551.4108908211431	0.0	124.49116716262186	627.0170140442434	0.0	372.21969273292405	488.81249187038685	0.0	434.35139571411014	533.323844500732	0.0	474.6539685949574	576.4214764982868	0.0
204	6.821249999999999	321.4876435080979	675.4710938870145	0.0	286.22435042947836	680.0698295502166	0.0	297.5948589689605	816.434205523631	0.0	312.12123653168885	957.6377096134994	0.0	319.52807306835496	994.7918381029764	0.0	300.65197587058407	993.1373305996751	0.0	321.79504086036735	974.9193381490581	0.0	360.02703669006684	674.3349836446939	0.0	370.2487864921031	804.7426924052095	0.0	360.28750022095477	803.2281588949091	0.0	359.1922361996925	845.9687674283903	0.0	373.17972960116253	832.4594361545924	0.0	352.5610365767284	782.4400646651923	0.0	302.64248244336414	495.35477466745147	0.0	287.0161673700496	397.87782666230055	0.0	294.5765922600191	469.03319456505744	0.0	235.56605030178218	503.9131607831869	0.0	167.20739935803022	554.3229071257094	0.0	128.2009565376425	632.9111153164763	0.0	371.91903170472136	491.74938253873404	0.0	434.41541602461774	537.1620772183195	0.0	468.052573811752	588.1976363015989	0.0
